<svg width="133" height="121" viewBox="0 0 133 121" fill="none" xmlns="http://www.w3.org/2000/svg">
<path opacity="0.15" d="M115.004 92.0358L122.259 74.495C124.76 73.9201 127.035 72.6697 128.877 70.8514C134.08 65.714 134.398 57.3719 129.606 51.8606L128.107 50.1358L124.81 58.1026C124.309 59.3119 122.916 59.8854 121.714 59.387L118.442 58.0275C117.234 57.5263 116.657 56.1357 117.158 54.9278L120.456 46.961L118.177 47.1196C114.878 47.349 111.764 48.7566 109.409 51.0846C104.733 55.701 103.938 62.8351 107.387 68.3294L99.8918 86.448L84.8517 80.9466V64.4352L85.5871 63.8348C90.6825 59.6631 93.3751 53.9748 93.3751 47.3872V44.5579C94.7059 42.962 95.4596 40.7048 95.4596 38.2635C95.4596 35.8222 94.7073 33.565 93.3751 31.9691V27.5255V24.0731V19.1169C93.3751 8.5757 84.8107 0 74.2834 0H60.1018C49.6183 0 41.0525 8.57286 41.0101 19.1112L40.9888 24.0731H40.9705V31.9677C39.6397 33.5636 38.8859 35.8208 38.8859 38.2621C38.8859 40.7048 39.6383 42.9606 40.9705 44.5565V47.3858C40.9705 53.9734 43.6617 59.6617 48.7571 63.8334L49.4939 64.4367V80.9423L33.2998 86.8657L28.2681 74.7003C28.773 73.9158 29.2085 73.0874 29.5649 72.225C31.8036 66.8142 30.7359 60.4858 26.8468 56.1031L25.2361 54.2891L21.1787 66.1657L14.679 66.7774L10.517 61.7433L15.9094 50.7277L13.2761 51.0931C7.88804 51.8379 3.24946 55.4248 1.16917 60.449C-2.07218 68.2898 1.65848 77.3073 9.4875 80.5543C10.3488 80.9112 11.2425 81.1901 12.1519 81.387L16.9927 93.0879C13.3228 94.8863 9.80004 97.4508 8.12987 101.679L1.5114 118.431L4.14041 119.471L10.7589 102.719C12.7204 97.7553 17.8525 95.5335 23.8586 93.3357L29.695 91.2003V97.6675H26.868V106.205H29.695V110.453H24.5799L19.9469 119.733L22.4769 121L26.3292 113.287H32.5263V110.455H32.5248V106.206H41.0115V110.455V111.999V113.287H57.2748H77.0736H93.3369V110.455H93.3355V106.206H101.822V110.455V111.614V113.287H108.019L111.871 121L114.401 119.733L109.769 110.453H104.652V106.205H107.48V97.7085H104.652V91.2017L110.49 93.3372C116.494 95.5349 121.625 97.7567 123.588 102.721L130.208 119.473L132.837 118.431L126.217 101.679C124.188 96.5488 119.436 93.8639 115.004 92.0358ZM43.7989 29.2913C59.1981 24.4725 74.9085 24.4994 90.5439 29.3692V31.128C89.2456 32.1985 88.0125 33.1827 86.7977 34.1428C85.5277 35.1453 84.2563 36.1493 82.8945 37.2779C72.5849 33.1105 62.0251 33.1119 51.478 37.2822C50.0836 36.1196 48.7712 35.0406 47.4588 33.9601C46.2652 32.9788 45.0547 31.9804 43.7989 30.934V29.2913ZM60.1018 2.83355H74.2806C83.248 2.83355 90.5439 10.139 90.5439 19.1183V24.0745V26.4054C74.917 21.704 59.2179 21.6743 43.8073 26.3204L43.837 19.1226C43.8752 10.1419 51.1697 2.83355 60.1018 2.83355ZM43.7989 47.3872V43.4322L43.3902 43.0187C42.3422 41.9566 41.7143 40.178 41.7143 38.2649C41.7143 36.594 42.2135 35.0575 43.0338 33.9785C43.9233 34.7163 44.7959 35.4356 45.6614 36.1493C47.1703 37.3912 48.6807 38.6331 50.3141 40.001L50.9717 40.5519L51.7636 40.2234C62.1241 35.9185 72.4944 35.9185 82.5876 40.2191L83.3852 40.559L84.0499 40.001C85.6437 38.6628 87.0961 37.5158 88.5499 36.3688C89.4818 35.6325 90.4279 34.8763 91.3967 34.0918C92.1631 35.1652 92.6284 36.6535 92.6284 38.2663C92.6284 40.1809 92.0019 41.958 90.9526 43.0201L90.5439 43.4336V47.3886C90.5439 53.0996 88.2104 58.029 83.7953 61.6428L76.6776 67.4699C75.0782 68.7783 73.3712 69.3886 71.3051 69.3886H68.587H65.7586H63.0405C60.9743 69.3886 59.266 68.7769 57.6665 67.4699L50.5474 61.6428C46.1337 58.0275 43.7989 53.0968 43.7989 47.3872ZM55.8761 69.6634C57.9791 71.3839 60.3238 72.2222 63.0391 72.2222H65.7572H68.5856H71.3037C74.0204 72.2222 76.3623 71.3839 78.4652 69.6634L82.0205 66.7519V82.5099C77.4936 85.0461 72.4166 86.3814 67.1912 86.3814C61.9544 86.3814 56.859 85.0447 52.3223 82.4972V66.7533L55.8761 69.6634ZM22.8885 90.6764C21.8462 91.0587 20.7233 91.4722 19.5764 91.9381L14.1685 78.8664L13.3879 78.7403C12.4248 78.586 11.4759 78.3155 10.5694 77.9403C7.47509 76.6573 5.06388 74.2443 3.78261 71.1446C2.50135 68.0462 2.50135 64.6335 3.78261 61.5366C5.10489 58.3419 7.69288 55.861 10.8494 54.6332L7.17245 62.1426L13.4558 69.7427L23.2647 68.8166L26.2472 60.0879C28.1733 63.4256 28.4703 67.4741 26.9515 71.146C26.5767 72.0537 26.0959 72.9146 25.5217 73.7105L25.0593 74.352L30.6397 87.8428L22.8885 90.6764ZM41.0101 87.0626V97.6689V100.501V100.542H43.8385V103.374H29.6964V100.542H32.5234V90.1666L41.0101 87.0626ZM90.5057 110.455H77.0722H57.2734H43.8385V106.206H46.6669V97.6689H43.8385V86.0274L49.3652 84.0053C54.7052 87.4038 60.8499 89.2136 67.1912 89.2136C73.5282 89.2136 79.6602 87.4053 84.9974 84.0124L90.5057 86.0274V97.71H87.6787V106.206H90.5057V110.455ZM102.307 100.542H104.648V103.374H90.5057V100.542H93.2888H93.3327V87.0611L101.819 90.1637V100.541H102.307V100.542ZM102.548 87.418L110.586 67.9896L110.133 67.3509C106.99 62.9172 107.519 56.923 111.393 53.0996C112.685 51.8238 114.263 50.8948 115.977 50.3808L114.543 53.8445C113.448 56.4954 114.71 59.5456 117.357 60.6444L120.63 62.0039C123.278 63.0999 126.323 61.8368 127.422 59.1873L128.856 55.7208C131.134 59.9477 130.441 65.3302 126.89 68.8364C125.271 70.4337 123.236 71.4788 121.003 71.8611L120.232 71.9928L112.365 91.012C112.055 90.8987 111.751 90.7882 111.454 90.6792L102.548 87.418Z" fill="#A68B73"/>
</svg>
